<svg width="45" height="45" viewBox="0 0 45 45" fill="none" xmlns="http://www.w3.org/2000/svg">
<path d="M7.32584 34.5735C5.24719 32.1471 4 29.5 4 25.0882C4 17.3676 9.19663 10.5294 16.4719 7L18.3427 9.86765C11.4831 13.8382 10.0281 18.9118 9.61236 22.2206C10.6517 21.5588 12.1067 21.3382 13.5618 21.5588C17.3034 22 20.2135 25.0882 20.2135 29.2794C20.2135 31.2647 19.382 33.25 18.1348 34.7941C16.6798 36.3382 15.0169 37 12.9382 37C10.6517 37 8.57303 35.8971 7.32584 34.5735ZM28.1124 34.5735C26.0337 32.1471 24.7865 29.5 24.7865 25.0882C24.7865 17.3676 29.9831 10.5294 37.2584 7L39.1292 9.86765C32.2697 13.8382 30.8146 18.9118 30.3989 22.2206C31.4382 21.5588 32.8933 21.3382 34.3483 21.5588C38.0899 22 41 25.0882 41 29.2794C41 31.2647 40.1685 33.25 38.9213 34.7941C37.6742 36.3382 35.8034 37 33.7247 37C31.4382 37 29.3596 35.8971 28.1124 34.5735Z" fill="#EECE38"/>
</svg>
