<svg width="12" height="12" viewBox="0 0 12 12" fill="none" xmlns="http://www.w3.org/2000/svg">
<mask id="mask0_446_1402" style="mask-type:luminance" maskUnits="userSpaceOnUse" x="0" y="0" width="12" height="12">
<path d="M0 12L12 12L12 0L0 0L0 12Z" fill="white"/>
</mask>
<g mask="url(#mask0_446_1402)">
<path d="M0.176937 60C0.061317 48.345 0.0187763 39.1766 0.00407629 29.9965L29.9988 -0.000602055H18.3059C31.9013 -0.0112821 43.3832 -0.018545 60 0.182215L60 60L0.176937 60ZM12.0018 -0.000602055H18.3059C16.1727 0.00107795 13.9875 0.00245613 11.7223 0.00353613C11.8152 0.00137613 11.9083 -0.000602055 12.0018 -0.000602055ZM11.6918 0.00407629C5.20764 0.168536 0.00173712 5.47566 0.00173712 11.9994V27.5115C-0.00732288 19.1589 0.00245762 10.6111 -2.38419e-06 -2.38419e-06C4.18332 0.00527762 8.04156 0.00581629 11.6918 0.00407629ZM0.00173712 27.5115C0.00263712 28.3412 0.00275629 29.1689 0.00407629 29.9965L0.00173712 29.9983V27.5115Z" fill="white"/>
</g>
</svg>
