<svg width="12" height="12" viewBox="0 0 12 12" fill="none" xmlns="http://www.w3.org/2000/svg">
<mask id="mask0_446_1401" style="mask-type:luminance" maskUnits="userSpaceOnUse" x="0" y="0" width="12" height="12">
<path d="M12 0H0V12H12V0Z" fill="white"/>
</mask>
<g mask="url(#mask0_446_1401)">
<path d="M11.8231 -48C11.9387 -36.345 11.9812 -27.1766 11.9959 -17.9965L-17.9988 12.0006H-6.30588C-19.9013 12.0113 -31.3832 12.0185 -48 11.8178V-48H11.8231ZM-0.00175591 12.0006H-6.30588C-4.17269 11.9989 -1.98749 11.9975 0.277736 11.9965C0.184822 11.9986 0.0916681 12.0006 -0.00175591 12.0006ZM0.308205 11.9959C6.79236 11.8315 11.9983 6.52434 11.9983 0.000587845V-15.5115C12.0073 -7.1589 11.9975 1.38892 12 12C7.81668 11.9947 3.95844 11.9942 0.308205 11.9959ZM11.9983 -15.5115C11.9974 -16.3412 11.9972 -17.1689 11.9959 -17.9965L11.9983 -17.9983V-15.5115Z" fill="white"/>
</g>
</svg>
