<svg width="80" height="80" viewBox="0 0 80 80" fill="none" xmlns="http://www.w3.org/2000/svg">
<path d="M79.1273 42.0364C80.2909 40.8727 80.2909 38.9818 79.1273 37.9636C77.5273 36.3636 75.9273 34.7636 74.3273 33.1636C75.2 30.9818 76.2182 28.8 77.0909 26.6182C77.3818 26.0364 77.0909 24.8727 76.8 24.4364C76.3636 23.7091 75.7818 23.4182 75.0545 23.1273C73.0182 22.2545 71.1273 21.5273 69.0909 20.6545C69.0909 20.5091 69.0909 20.5091 69.0909 20.3636C69.0909 18.1818 69.0909 16 69.0909 13.8182C69.0909 12.2182 67.7818 10.9091 66.1818 10.9091C63.8545 10.9091 61.6727 10.9091 59.3455 10.9091C58.4727 8.87273 57.7455 6.98182 56.8727 4.94545C56.5818 4.21818 56.2909 3.63636 55.5636 3.2C54.9818 2.90909 53.9636 2.61818 53.3818 2.90909C51.2 3.78182 49.0182 4.8 46.8364 5.67273L46.6909 5.52727C45.0909 3.92727 43.6364 2.47273 42.0364 0.872727C40.8727 -0.290909 38.9818 -0.290909 37.9636 0.872727C36.3636 2.47273 34.7636 4.07273 33.1636 5.67273C30.9818 4.8 28.8 3.78182 26.6182 2.90909C26.0364 2.61818 24.8727 2.90909 24.4364 3.2C23.7091 3.63636 23.4182 4.21818 23.1273 4.94545C22.2545 6.98182 21.5273 8.87273 20.6545 10.9091C20.5091 10.9091 20.5091 10.9091 20.3636 10.9091C18.1818 10.9091 16 10.9091 13.8182 10.9091C12.2182 10.9091 10.9091 12.2182 10.9091 13.8182V20.6545C8.87273 21.5273 6.98182 22.2545 4.94545 23.1273C4.21818 23.4182 3.63636 23.7091 3.2 24.4364C2.47273 25.7455 3.05455 27.0545 3.63636 28.3636C4.36364 29.9636 4.94545 31.5636 5.67273 33.1636L5.52727 33.3091C3.92727 34.9091 2.47273 36.3636 0.872727 37.9636C-0.290909 39.1273 -0.290909 41.0182 0.872727 42.0364L5.67273 46.8364C4.8 49.0182 3.78182 51.2 2.90909 53.3818C2.61818 53.9636 2.90909 55.1273 3.2 55.5636C3.63636 56.2909 4.21818 56.5818 4.94545 56.8727C6.98182 57.7454 8.87273 58.4727 10.9091 59.3454V59.6364V66.1818C10.9091 67.7818 12.2182 69.0909 13.8182 69.0909H20.6545C21.5273 71.1273 22.2545 73.0182 23.1273 75.0545C23.7091 76.5091 25.1636 77.6727 26.7636 77.0909C28.9455 76.2182 31.1273 75.3454 33.3091 74.3273L33.4545 74.4727L38.1091 79.1273C39.2727 80.2909 41.1636 80.2909 42.1818 79.1273C43.7818 77.5273 45.3818 75.9273 46.9818 74.3273C49.1636 75.2 51.3455 76.2182 53.5273 77.0909C54.1091 77.3818 55.2727 77.0909 55.7091 76.8C56.4364 76.3636 56.7273 75.7818 57.0182 75.0545C57.8909 73.0182 58.6182 71.1273 59.4909 69.0909H59.7818H66.3273C67.9273 69.0909 69.2364 67.7818 69.2364 66.1818C69.2364 63.8545 69.2364 61.6727 69.2364 59.3454C71.2727 58.4727 73.1636 57.7454 75.2 56.8727C75.9273 56.5818 76.5091 56.2909 76.9454 55.5636C77.6727 54.1091 77.0909 52.9455 76.5091 51.4909C75.9273 49.8909 75.2 48.2909 74.6182 46.6909L74.7636 46.5455C76.0727 45.0909 77.5273 43.6364 79.1273 42.0364Z" fill="#D9D9D9"/>
</svg>
