<svg width="80" height="80" viewBox="0 0 80 80" fill="none" xmlns="http://www.w3.org/2000/svg">
<path d="M79.3187 29.7568C77.1689 22.7194 70.4056 18.2533 63.2454 19.1499C60.335 19.5052 57.5403 20.4018 54.9441 21.772C54.6961 21.9074 54.4149 21.6875 54.4646 21.4168C54.9772 18.4563 54.9772 15.479 54.448 12.5185C53.1417 5.26115 46.9736 0 39.7638 0C32.5539 0 26.3693 5.26115 25.0795 12.5185C24.6495 14.9376 24.5669 17.3906 24.8314 19.8266C24.8645 20.0973 24.5834 20.2834 24.3519 20.1649C22.2022 19.0484 19.9201 18.2533 17.572 17.8304C10.4779 16.5278 3.48302 20.5879 0.952959 27.5069C-1.5771 34.4259 1.06871 42.1907 7.2533 45.9801C9.76683 47.5365 12.5119 48.5853 15.3892 49.1267C15.6538 49.1774 15.753 49.5158 15.5545 49.7018C13.3717 51.715 11.5858 54.0664 10.2298 56.7393C6.88951 63.2861 8.60928 71.3216 14.2978 75.8554C17.0097 78.0038 20.2343 79.0865 23.4755 79.0865C27.0308 79.0865 30.5861 77.7839 33.4138 75.2125C35.6131 73.1994 37.3991 70.8649 38.7716 68.2089C38.9039 67.9552 39.2511 67.9721 39.3669 68.2258C40.5906 70.9495 42.2607 73.4024 44.3278 75.5339C47.2216 78.4775 51.025 80 54.878 80C57.838 80 60.798 79.1034 63.3776 77.2764C69.2977 73.081 71.4474 65.147 68.4708 58.431C67.2637 55.6904 65.61 53.2375 63.543 51.1059C63.3446 50.9029 63.4603 50.5646 63.7414 50.5308C66.6518 50.1586 69.4299 49.2451 72.0427 47.8579C78.3926 44.4069 81.4684 36.7942 79.3187 29.7568Z" fill="#D9D9D9"/>
</svg>
