<svg width="80" height="80" viewBox="0 0 80 80" fill="none" xmlns="http://www.w3.org/2000/svg">
<path fill-rule="evenodd" clip-rule="evenodd" d="M38.0438 1.26857C38.3886 0.497146 39.1543 0 40 0C40.8457 0 41.6114 0.497146 41.9562 1.26857L48.5314 15.981C48.9448 16.9048 50.0057 17.3448 50.9505 16.9829L66.0038 11.2286C66.7943 10.9276 67.6876 11.1181 68.2838 11.7162C68.8819 12.3124 69.0724 13.2057 68.7715 13.9962L63.0172 29.0495C62.6553 29.9943 63.0952 31.0552 64.019 31.4686L78.7315 38.0438C79.5029 38.3886 80 39.1543 80 40C80 40.8457 79.5029 41.6114 78.7315 41.9562L64.019 48.5314C63.0952 48.9448 62.6553 50.0057 63.0172 50.9505L68.7715 66.0038C69.0724 66.7943 68.8819 67.6876 68.2838 68.2838C67.6876 68.8819 66.7943 69.0724 66.0038 68.7714L50.9505 63.0171C50.0057 62.6552 48.9448 63.0952 48.5314 64.019L41.9562 78.7314C41.6114 79.5029 40.8457 80 40 80C39.1543 80 38.3886 79.5029 38.0438 78.7314L31.4686 64.019C31.0552 63.0952 29.9943 62.6552 29.0495 63.0171L13.9962 68.7714C13.2057 69.0724 12.3124 68.8819 11.7162 68.2838C11.1181 67.6876 10.9276 66.7943 11.2286 66.0038L16.9829 50.9505C17.3448 50.0057 16.9048 48.9448 15.981 48.5314L1.26857 41.9562C0.497146 41.6114 0 40.8457 0 40C0 39.1543 0.497146 38.3886 1.26857 38.0438L15.981 31.4686C16.9048 31.0552 17.3448 29.9943 16.9829 29.0495L11.2286 13.9962C10.9276 13.2057 11.1181 12.3124 11.7162 11.7162C12.3124 11.1181 13.2057 10.9276 13.9962 11.2286L29.0495 16.9829C29.9943 17.3448 31.0552 16.9048 31.4686 15.981L38.0438 1.26857Z" fill="#D9D9D9"/>
</svg>
